<svg xmlns="http://www.w3.org/2000/svg" viewBox="0 0 500 500"><g id="freepik--background-complete--inject-44"><rect y="382.4" width="500" height="0.25" style="fill:#ebebeb"></rect><rect x="52.46" y="391.92" width="16.06" height="0.25" style="fill:#ebebeb"></rect><rect x="171.14" y="389.21" width="53.53" height="0.25" style="fill:#ebebeb"></rect><rect x="69.52" y="401.21" width="36.25" height="0.25" style="fill:#ebebeb"></rect><rect x="379.14" y="389.08" width="43.19" height="0.25" style="fill:#ebebeb"></rect><rect x="431.24" y="389.08" width="6.33" height="0.25" style="fill:#ebebeb"></rect><rect x="317" y="395.31" width="53.89" height="0.25" style="fill:#ebebeb"></rect><path d="M237,337.8H43.91a5.71,5.71,0,0,1-5.7-5.71V60.66A5.71,5.71,0,0,1,43.91,55H237a5.71,5.71,0,0,1,5.71,5.71V332.09A5.71,5.71,0,0,1,237,337.8ZM43.91,55.2a5.46,5.46,0,0,0-5.45,5.46V332.09a5.46,5.46,0,0,0,5.45,5.46H237a5.47,5.47,0,0,0,5.46-5.46V60.66A5.47,5.47,0,0,0,237,55.2Z" style="fill:#ebebeb"></path><path d="M453.31,337.8H260.21a5.72,5.72,0,0,1-5.71-5.71V60.66A5.72,5.72,0,0,1,260.21,55h193.1A5.71,5.71,0,0,1,459,60.66V332.09A5.71,5.71,0,0,1,453.31,337.8ZM260.21,55.2a5.47,5.47,0,0,0-5.46,5.46V332.09a5.47,5.47,0,0,0,5.46,5.46h193.1a5.47,5.47,0,0,0,5.46-5.46V60.66a5.47,5.47,0,0,0-5.46-5.46Z" style="fill:#ebebeb"></path><rect x="389.71" y="298.81" width="6.64" height="83.59" style="fill:#f5f5f5"></rect><rect x="393.46" y="298.81" width="5.78" height="83.59" style="fill:#f0f0f0"></rect><rect x="234.83" y="298.81" width="6.64" height="83.59" style="fill:#f5f5f5"></rect><rect x="238.58" y="298.81" width="5.78" height="83.59" style="fill:#f0f0f0"></rect><rect x="414.88" y="298.81" width="6.64" height="83.59" style="fill:#f5f5f5"></rect><rect x="418.63" y="298.81" width="5.78" height="83.59" style="fill:#f0f0f0"></rect><rect x="260" y="298.81" width="6.64" height="83.59" style="fill:#f5f5f5"></rect><rect x="234.83" y="297.22" width="189.57" height="3.17" transform="translate(659.24 597.61) rotate(180)" style="fill:#f0f0f0"></rect><rect x="234.83" y="297.22" width="28.92" height="3.17" transform="translate(498.58 597.61) rotate(180)" style="fill:#e6e6e6"></rect><rect x="263.75" y="298.81" width="5.78" height="83.59" style="fill:#f0f0f0"></rect><rect x="311.71" y="236.34" width="17.93" height="60.88" style="fill:#ebebeb"></rect><polygon points="378.26 297.22 318.74 297.22 309.75 225.97 369.27 225.97 378.26 297.22" style="fill:#e0e0e0"></polygon><polygon points="381.76 297.22 320.28 297.22 311.29 225.97 372.77 225.97 381.76 297.22" style="fill:#f0f0f0"></polygon><polygon points="347.27 297.22 335.34 297.22 338.7 225.97 350.63 225.97 347.27 297.22" style="fill:#fafafa"></polygon><polygon points="360.94 297.22 349.2 297.22 352.56 225.97 364.3 225.97 360.94 297.22" style="fill:#fafafa"></polygon><rect x="276.32" y="72.51" width="154.63" height="120.99" style="fill:#e6e6e6"></rect><rect x="278.49" y="72.51" width="157.1" height="120.99" style="fill:#f0f0f0"></rect><rect x="276.32" y="193.5" width="154.63" height="4.05" style="fill:#e6e6e6"></rect><rect x="280.96" y="193.5" width="157.1" height="4.05" style="fill:#f0f0f0"></rect><rect x="303.04" y="60.95" width="108" height="144.11" transform="translate(490.05 -224.04) rotate(90)" style="fill:#fafafa"></rect><polygon points="363.85 187 374.25 79.01 392.25 79.01 381.85 187 363.85 187" style="fill:#fff"></polygon><polygon points="318.43 187 328.83 79.01 346.83 79.01 336.43 187 318.43 187" style="fill:#fff"></polygon><path d="M288,150.4a.5.5,0,0,1-.49-.5V83.23a.5.5,0,0,1,1,0V149.9A.5.5,0,0,1,288,150.4Z" style="fill:#f0f0f0"></path><polygon points="385.71 187 396.11 79.01 403.13 79.01 392.73 187 385.71 187" style="fill:#fff"></polygon><rect x="374.69" y="132.59" width="108" height="0.82" transform="translate(561.69 -295.68) rotate(90)" style="fill:#e6e6e6"></rect><polygon points="437.13 90.78 282.5 90.78 281.9 81.53 436.53 81.53 437.13 90.78" style="fill:#e0e0e0;opacity:0.5"></polygon><polygon points="437.13 105.99 282.5 105.99 281.9 96.74 436.53 96.74 437.13 105.99" style="fill:#e0e0e0;opacity:0.5"></polygon><polygon points="437.13 121.2 282.5 121.2 281.9 111.95 436.53 111.95 437.13 121.2" style="fill:#e0e0e0;opacity:0.5"></polygon><polygon points="437.13 136.41 282.5 136.41 281.9 127.16 436.53 127.16 437.13 136.41" style="fill:#e0e0e0;opacity:0.5"></polygon><polygon points="437.13 151.61 282.5 151.61 281.9 142.36 436.53 142.36 437.13 151.61" style="fill:#e0e0e0;opacity:0.5"></polygon><polygon points="437.13 166.82 282.5 166.82 281.9 157.57 436.53 157.57 437.13 166.82" style="fill:#e0e0e0;opacity:0.5"></polygon><polygon points="437.13 98.39 282.5 98.39 281.9 89.14 436.53 89.14 437.13 98.39" style="fill:#e0e0e0;opacity:0.5"></polygon><polygon points="437.13 113.59 282.5 113.59 281.9 104.34 436.53 104.34 437.13 113.59" style="fill:#e0e0e0;opacity:0.5"></polygon><polygon points="437.13 128.8 282.5 128.8 281.9 119.55 436.53 119.55 437.13 128.8" style="fill:#e0e0e0;opacity:0.5"></polygon><polygon points="437.13 144.01 282.5 144.01 281.9 134.76 436.53 134.76 437.13 144.01" style="fill:#e0e0e0;opacity:0.5"></polygon><polygon points="437.13 159.22 282.5 159.22 281.9 149.97 436.53 149.97 437.13 159.22" style="fill:#e0e0e0;opacity:0.5"></polygon><polygon points="437.13 174.43 282.5 174.43 281.9 165.17 436.53 165.17 437.13 174.43" style="fill:#e0e0e0;opacity:0.5"></polygon><rect x="94.39" y="114.85" width="30.63" height="17.7" rx="4.82" transform="translate(219.4 247.41) rotate(180)" style="fill:#f5f5f5"></rect><rect x="94.39" y="97.15" width="30.63" height="17.7" rx="4.82" transform="translate(219.4 212) rotate(180)" style="fill:#f5f5f5"></rect><rect x="104.4" y="91.02" width="10.61" height="6.13" rx="1.67" transform="translate(219.4 188.17) rotate(180)" style="fill:#e0e0e0"></rect><rect x="94.39" y="132.56" width="30.63" height="17.7" rx="4.82" transform="translate(219.4 282.81) rotate(-180)" style="fill:#f5f5f5"></rect><path d="M210.52,138s-1,12.3-39.89,12.3-39.9-12.3-39.9-12.3Z" style="fill:#f0f0f0"></path><rect x="60.42" y="152.75" width="30.82" height="218.23" style="fill:#f0f0f0"></rect><rect x="66.33" y="370.98" width="151.98" height="11.42" style="fill:#f0f0f0"></rect><rect x="91.23" y="152.75" width="132.99" height="218.23" transform="translate(315.46 523.72) rotate(180)" style="fill:#f5f5f5"></rect><rect x="103.35" y="230.3" width="108.76" height="51.5" transform="translate(315.46 512.09) rotate(180)" style="fill:#f0f0f0"></rect><rect x="103.35" y="293.28" width="108.76" height="51.5" transform="translate(315.46 638.06) rotate(180)" style="fill:#f0f0f0"></rect><rect x="103.35" y="355.51" width="108.76" height="7.85" transform="translate(315.46 718.86) rotate(180)" style="fill:#f0f0f0"></rect><path d="M185.37,234.37H130.09a4.33,4.33,0,0,1-4.32-4.32h0a4.33,4.33,0,0,1,4.32-4.31h55.28a4.33,4.33,0,0,1,4.32,4.31h0A4.33,4.33,0,0,1,185.37,234.37Z" style="fill:#f5f5f5"></path><rect x="103.35" y="167.31" width="108.76" height="51.5" transform="translate(315.46 386.12) rotate(180)" style="fill:#f0f0f0"></rect><path d="M185.37,171.39H130.09a4.33,4.33,0,0,1-4.32-4.32h0a4.33,4.33,0,0,1,4.32-4.32h55.28a4.33,4.33,0,0,1,4.32,4.32h0A4.33,4.33,0,0,1,185.37,171.39Z" style="fill:#f5f5f5"></path><path d="M185.37,297.36H130.09a4.33,4.33,0,0,1-4.32-4.32h0a4.33,4.33,0,0,1,4.32-4.32h55.28a4.33,4.33,0,0,1,4.32,4.32h0A4.33,4.33,0,0,1,185.37,297.36Z" style="fill:#f5f5f5"></path><rect x="91.23" y="150.26" width="137.1" height="2.49" style="fill:#f0f0f0"></rect><rect x="56.11" y="150.26" width="35.12" height="2.49" transform="translate(147.35 303.01) rotate(180)" style="fill:#e6e6e6"></rect></g><g id="freepik--Shadow--inject-44"><ellipse id="freepik--path--inject-44" cx="250" cy="416.24" rx="193.89" ry="11.32" style="fill:#f5f5f5"></ellipse></g><g id="freepik--Table--inject-44"><polygon points="442.06 317.11 57.94 317.11 50.86 310.41 449.14 310.41 442.06 317.11" style="fill:#0444AC"></polygon><polygon points="442.06 317.11 57.94 317.11 50.86 310.41 449.14 310.41 442.06 317.11" style="fill:#fff;opacity:0.5"></polygon><polygon points="409.12 320.72 90.88 320.72 85.01 317.11 414.99 317.11 409.12 320.72" style="fill:#0444AC"></polygon><polygon points="409.12 320.72 90.88 320.72 85.01 317.11 414.99 317.11 409.12 320.72" style="opacity:0.5"></polygon><polygon points="88.36 416.24 83.79 416.24 97.96 320.72 108.15 320.72 88.36 416.24" style="fill:#0444AC"></polygon><polygon points="88.36 416.24 83.79 416.24 97.96 320.72 108.15 320.72 88.36 416.24" style="opacity:0.5"></polygon><polygon points="113.1 416.24 108.54 416.24 122.71 320.72 132.9 320.72 113.1 416.24" style="fill:#0444AC"></polygon><polygon points="113.1 416.24 108.54 416.24 122.71 320.72 132.9 320.72 113.1 416.24" style="opacity:0.5"></polygon><polygon points="411.64 416.24 416.21 416.24 402.04 320.72 391.85 320.72 411.64 416.24" style="fill:#0444AC"></polygon><polygon points="411.64 416.24 416.21 416.24 402.04 320.72 391.85 320.72 411.64 416.24" style="opacity:0.5"></polygon><polygon points="386.9 416.24 391.46 416.24 377.29 320.72 367.1 320.72 386.9 416.24" style="fill:#0444AC"></polygon><polygon points="386.9 416.24 391.46 416.24 377.29 320.72 367.1 320.72 386.9 416.24" style="opacity:0.5"></polygon></g><g id="freepik--Gear--inject-44"><path d="M224.28,95.14l12.91.87a2.75,2.75,0,0,1,2.34,1.62l1.36,3a2.76,2.76,0,0,0,1.49,1.42,37.35,37.35,0,0,1,4.7,2.33,2.78,2.78,0,0,0,2,.32l3.24-.76a2.78,2.78,0,0,1,2.71.87l8.52,9.74a2.77,2.77,0,0,1,.5,2.81l-1.18,3.1a2.77,2.77,0,0,0,.05,2.06,37.7,37.7,0,0,1,1.68,5,2.72,2.72,0,0,0,1.21,1.66l2.82,1.75a2.75,2.75,0,0,1,1.3,2.53l-.86,12.92a2.74,2.74,0,0,1-1.63,2.33l-3,1.36a2.83,2.83,0,0,0-1.42,1.49,36,36,0,0,1-2.32,4.7,2.75,2.75,0,0,0-.32,2l.75,3.23a2.75,2.75,0,0,1-.87,2.71l-9.74,8.52a2.75,2.75,0,0,1-2.8.5l-3.11-1.18a2.79,2.79,0,0,0-2.05,0,38.72,38.72,0,0,1-5,1.68,2.76,2.76,0,0,0-1.66,1.21l-1.75,2.82a2.77,2.77,0,0,1-2.54,1.3l-12.91-.86a2.77,2.77,0,0,1-2.34-1.62l-1.36-3a2.76,2.76,0,0,0-1.49-1.42,37.35,37.35,0,0,1-4.7-2.33,2.77,2.77,0,0,0-2-.32l-3.23.76a2.76,2.76,0,0,1-2.71-.87l-8.53-9.74a2.79,2.79,0,0,1-.5-2.81l1.18-3.1a2.74,2.74,0,0,0-.05-2.05,38.34,38.34,0,0,1-1.68-5,2.72,2.72,0,0,0-1.21-1.66l-2.82-1.75a2.75,2.75,0,0,1-1.3-2.53l.86-12.92a2.78,2.78,0,0,1,1.63-2.34l3-1.35a2.76,2.76,0,0,0,1.42-1.49,37.48,37.48,0,0,1,2.33-4.71,2.79,2.79,0,0,0,.33-2l-.76-3.23a2.76,2.76,0,0,1,.87-2.71l9.74-8.52a2.76,2.76,0,0,1,2.8-.51l3.11,1.18a2.74,2.74,0,0,0,2.05,0,37.23,37.23,0,0,1,5-1.68A2.81,2.81,0,0,0,220,99.27l1.75-2.82A2.78,2.78,0,0,1,224.28,95.14Zm-20.75,40.37a24.49,24.49,0,1,0,26.06-22.8A24.5,24.5,0,0,0,203.53,135.51Z" style="fill:#0444AC"></path><path d="M275.45,149.72l4.43-1.5a1.38,1.38,0,0,1,1.37.3l.73.7a1.41,1.41,0,0,0,.93.36,13.68,13.68,0,0,1,1.82.12,1.33,1.33,0,0,0,1-.24l.82-.59a1.38,1.38,0,0,1,1.4-.11l4.19,2.08a1.36,1.36,0,0,1,.76,1.17l0,1a1.38,1.38,0,0,0,.4.92,13.07,13.07,0,0,1,1.2,1.37,1.39,1.39,0,0,0,.85.52l1,.16a1.35,1.35,0,0,1,1.06.91l1.5,4.43a1.35,1.35,0,0,1-.29,1.37l-.7.73a1.39,1.39,0,0,0-.36.93,13.79,13.79,0,0,1-.12,1.82,1.34,1.34,0,0,0,.23,1l.59.82a1.34,1.34,0,0,1,.12,1.39l-2.08,4.2a1.36,1.36,0,0,1-1.17.76l-1,0a1.33,1.33,0,0,0-.91.4,17.55,17.55,0,0,1-1.37,1.2,1.39,1.39,0,0,0-.52.85l-.16,1a1.35,1.35,0,0,1-.91,1.06l-4.43,1.5a1.35,1.35,0,0,1-1.37-.3l-.74-.69a1.32,1.32,0,0,0-.93-.36,13.64,13.64,0,0,1-1.81-.12,1.33,1.33,0,0,0-1,.23l-.82.59a1.36,1.36,0,0,1-1.4.12l-4.19-2.08a1.36,1.36,0,0,1-.76-1.18l0-1a1.38,1.38,0,0,0-.4-.91,14.18,14.18,0,0,1-1.2-1.37,1.3,1.3,0,0,0-.85-.52l-1-.16a1.4,1.4,0,0,1-1.07-.91l-1.5-4.44a1.36,1.36,0,0,1,.3-1.36l.7-.73a1.41,1.41,0,0,0,.36-.94,13.79,13.79,0,0,1,.12-1.82,1.35,1.35,0,0,0-.24-1l-.58-.82a1.34,1.34,0,0,1-.12-1.39l2.08-4.2a1.33,1.33,0,0,1,1.17-.75l1,0a1.38,1.38,0,0,0,.92-.4,14.18,14.18,0,0,1,1.37-1.2,1.39,1.39,0,0,0,.52-.85l.16-1A1.35,1.35,0,0,1,275.45,149.72Zm2.65,16.18a5,5,0,1,0,3.14-6.35A5,5,0,0,0,278.1,165.9Z" style="fill:#0444AC"></path><path d="M275.45,149.72l4.43-1.5a1.38,1.38,0,0,1,1.37.3l.73.7a1.41,1.41,0,0,0,.93.36,13.68,13.68,0,0,1,1.82.12,1.33,1.33,0,0,0,1-.24l.82-.59a1.38,1.38,0,0,1,1.4-.11l4.19,2.08a1.36,1.36,0,0,1,.76,1.17l0,1a1.38,1.38,0,0,0,.4.92,13.07,13.07,0,0,1,1.2,1.37,1.39,1.39,0,0,0,.85.52l1,.16a1.35,1.35,0,0,1,1.06.91l1.5,4.43a1.35,1.35,0,0,1-.29,1.37l-.7.73a1.39,1.39,0,0,0-.36.93,13.79,13.79,0,0,1-.12,1.82,1.34,1.34,0,0,0,.23,1l.59.82a1.34,1.34,0,0,1,.12,1.39l-2.08,4.2a1.36,1.36,0,0,1-1.17.76l-1,0a1.33,1.33,0,0,0-.91.4,17.55,17.55,0,0,1-1.37,1.2,1.39,1.39,0,0,0-.52.85l-.16,1a1.35,1.35,0,0,1-.91,1.06l-4.43,1.5a1.35,1.35,0,0,1-1.37-.3l-.74-.69a1.32,1.32,0,0,0-.93-.36,13.64,13.64,0,0,1-1.81-.12,1.33,1.33,0,0,0-1,.23l-.82.59a1.36,1.36,0,0,1-1.4.12l-4.19-2.08a1.36,1.36,0,0,1-.76-1.18l0-1a1.38,1.38,0,0,0-.4-.91,14.18,14.18,0,0,1-1.2-1.37,1.3,1.3,0,0,0-.85-.52l-1-.16a1.4,1.4,0,0,1-1.07-.91l-1.5-4.44a1.36,1.36,0,0,1,.3-1.36l.7-.73a1.41,1.41,0,0,0,.36-.94,13.79,13.79,0,0,1,.12-1.82,1.35,1.35,0,0,0-.24-1l-.58-.82a1.34,1.34,0,0,1-.12-1.39l2.08-4.2a1.33,1.33,0,0,1,1.17-.75l1,0a1.38,1.38,0,0,0,.92-.4,14.18,14.18,0,0,1,1.37-1.2,1.39,1.39,0,0,0,.52-.85l.16-1A1.35,1.35,0,0,1,275.45,149.72Zm2.65,16.18a5,5,0,1,0,3.14-6.35A5,5,0,0,0,278.1,165.9Z" style="fill:#fff;opacity:0.5"></path><path d="M249.9,197.74l5.5-9.53a2.35,2.35,0,0,0-2-3.52h-11a2.34,2.34,0,0,0-2,3.52l5.5,9.53A2.35,2.35,0,0,0,249.9,197.74Z" style="fill:#0444AC"></path></g><g id="freepik--character-1--inject-44"><path d="M69.69,306.42H204.5a3.44,3.44,0,0,0,3.45-3.56l-3.19-96.38a3.74,3.74,0,0,0-3.69-3.57H66.27a3.43,3.43,0,0,0-3.45,3.57L66,302.86A3.71,3.71,0,0,0,69.69,306.42Z" style="fill:#0444AC"></path><path d="M70.79,306.42H205.6a3.44,3.44,0,0,0,3.45-3.56l-3.19-96.38a3.74,3.74,0,0,0-3.69-3.57H67.37a3.44,3.44,0,0,0-3.45,3.57l3.19,96.38A3.71,3.71,0,0,0,70.79,306.42Z" style="fill:#0444AC"></path><g style="opacity:0.6000000000000001"><path d="M70.79,306.42H205.6a3.44,3.44,0,0,0,3.45-3.56l-3.19-96.38a3.74,3.74,0,0,0-3.69-3.57H67.37a3.44,3.44,0,0,0-3.45,3.57l3.19,96.38A3.71,3.71,0,0,0,70.79,306.42Z" style="fill:#263238"></path></g><path d="M72.53,306.25H235.34a4.27,4.27,0,0,1,3.84,2.4,1.23,1.23,0,0,1-1.12,1.76H69.81a1.23,1.23,0,0,1-1.13-1.76A4.28,4.28,0,0,1,72.53,306.25Z" style="fill:#0444AC"></path><path d="M235.34,306.25H105.42a4.28,4.28,0,0,0-3.85,2.4,1.23,1.23,0,0,0,1.13,1.76H238.06a1.23,1.23,0,0,0,1.12-1.76A4.27,4.27,0,0,0,235.34,306.25Z" style="fill:#263238;opacity:0.6000000000000001"></path><path d="M157.68,308.89h33.8a1.52,1.52,0,0,1,1.51,1.52H156.16A1.52,1.52,0,0,1,157.68,308.89Z" style="fill:#fff;opacity:0.30000000000000004"></path><path d="M205.83,299.37l-3-89.4a1.46,1.46,0,0,0-1.44-1.39H68.48A1.33,1.33,0,0,0,67.14,210l3,89.4a1.44,1.44,0,0,0,1.43,1.39h133A1.34,1.34,0,0,0,205.83,299.37Z" style="fill:#fff;opacity:0.9"></path><polygon points="96.26 300.76 77.93 300.76 99.06 208.58 117.39 208.58 96.26 300.76" style="fill:#fff"></polygon><polygon points="107.94 300.76 101.34 300.76 122.47 208.58 129.07 208.58 107.94 300.76" style="fill:#fff"></polygon><polygon points="175.37 300.76 168.77 300.76 189.9 208.58 196.49 208.58 175.37 300.76" style="fill:#fff"></polygon><path d="M133.82,205.9a1.1,1.1,0,0,0,1.08,1,1,1,0,0,0,1-1,1.08,1.08,0,0,0-1.08-1A1,1,0,0,0,133.82,205.9Z" style="fill:#fff;opacity:0.4"></path><path d="M176.74,196.06c1.77,2.84,3.68,5.85,5.59,8.75s3.87,5.8,5.87,8.64a181.63,181.63,0,0,0,12.57,16.23,63.62,63.62,0,0,0,6.85,6.73l.86.68a6.44,6.44,0,0,0,.59.45,16.11,16.11,0,0,0,1.61.93,30.08,30.08,0,0,0,4.18,1.66c1.51.51,3.1,1,4.72,1.37s3.29.8,5,1.15c3.35.71,6.85,1.36,10.22,1.94v7c-1.92.28-3.72.42-5.59.55s-3.72.18-5.6.19a69.62,69.62,0,0,1-11.46-.91,42.18,42.18,0,0,1-6.05-1.52,23.62,23.62,0,0,1-3.22-1.38c-.55-.26-1.13-.63-1.69-1l-1.29-.9a69.42,69.42,0,0,1-8.9-7.79,159.27,159.27,0,0,1-14.29-17.18q-3.25-4.45-6.26-9c-2-3.08-4-6.1-5.86-9.38Z" style="fill:#ffc3bd"></path><path d="M159.91,198c-1,8.78,19.93,29.76,19.93,29.76L194,215.94a192.12,192.12,0,0,0-13.75-20.21C172.2,185.76,161,188.07,159.91,198Z" style="fill:#0444AC"></path><path d="M171.35,204.23c-5.59-6-8.26-7.55-11.48-5.16.43,9.27,20,28.67,20,28.67C181.15,217.79,176.08,211.39,171.35,204.23Z" style="opacity:0.30000000000000004"></path><polygon points="192.85 211.89 194.34 216.21 178.5 229.21 175.37 225.96 192.85 211.89" style="fill:#0444AC"></polygon><polygon points="192.85 211.89 194.34 216.21 178.5 229.21 175.37 225.96 192.85 211.89" style="fill:#263238;opacity:0.30000000000000004"></polygon><path d="M234.05,244.45l11,1.89L239,256c-1.44.23-7.18-2.88-9.72-6.74Z" style="fill:#ffc3bd"></path><polygon points="251.8 252.86 247.41 257.84 238.99 255.95 245.03 246.34 251.8 252.86" style="fill:#ffc3bd"></polygon><path d="M171.3,189.59s12,28.22,3.36,80.78h-50c-.61-7.67,2.91-45.1-5.74-81.26A127.93,127.93,0,0,1,135.59,187a183.59,183.59,0,0,1,21.25,0A95.13,95.13,0,0,1,171.3,189.59Z" style="fill:#0444AC"></path><path d="M130.09,198c1,6-.34,20.18-5.44,36.64a238.66,238.66,0,0,0-4.91-42v-.07C123,192.3,129.1,192.46,130.09,198Z" style="opacity:0.30000000000000004"></path><path d="M136.86,163.07c1.58,6.84,3.35,19.37-1.27,23.93,0,0,2,5.66,14.7,5.66,14,0,6.55-5.66,6.55-5.66-7.69-1.82-7.69-7.48-6.55-12.79Z" style="fill:#ffc3bd"></path><path d="M151.15,193.19l3,3.17a.64.64,0,0,1,.12.72l-1.5,3.13a.63.63,0,0,1-.55.37l-2.27.11a.63.63,0,0,1-.55-.28l-2.1-3a.65.65,0,0,1,0-.78l2.88-3.41A.63.63,0,0,1,151.15,193.19Z" style="fill:#fff"></path><path d="M150.66,192.66a16.29,16.29,0,0,0-2.43,7.7s-16.23-5.55-15.49-13.67a32.15,32.15,0,0,0,4.15-2.41S137.42,189.41,150.66,192.66Z" style="fill:#263238"></path><path d="M150.66,192.66a22.15,22.15,0,0,1,3.07,7.21s7.52-5.15,5.38-13.18l-4.42-.95S155.62,190.92,150.66,192.66Z" style="fill:#263238"></path><path d="M152.5,200.24c1,3.32,8.54,27.94,8.73,33.83a.76.76,0,0,1,0,.15c-.7,3.17-3.84,8.73-5.12,10.91a.53.53,0,0,1-.95-.06c-.88-2.15-3-7.3-4.4-10.31a.61.61,0,0,1-.05-.18c-.66-10.75-.84-27.47-1.17-34.15a.53.53,0,0,1,.53-.56H152A.53.53,0,0,1,152.5,200.24Z" style="fill:#fff"></path><path d="M142.34,167.61l7.95,6.59a21.51,21.51,0,0,0-.53,3.77c-2.93-.42-7-3.61-7.45-6.66A10,10,0,0,1,142.34,167.61Z" style="opacity:0.2"></path><path d="M156.44,142.74c1.89,1.41,5.12,7.37,1,8.93S151.81,139.28,156.44,142.74Z" style="fill:#263238"></path><path d="M134.4,154.87c1.89,9.11,2.54,14.52,7.87,18.71a12.09,12.09,0,0,0,19.64-8.53c.78-8.45-2.46-21.92-12-24.58A12.23,12.23,0,0,0,134.4,154.87Z" style="fill:#ffc3bd"></path><path d="M135.59,161.73l3.82-2.55.25-2.22a16.54,16.54,0,0,0-1.73-9.35h0s18.57.69,20.87-5.12-4.24-10.18-4.24-10.18-6.57,3.77-11,4.07-18-5.24-18,6.23c-6,1.85-5.8,11.72,10,19.12" style="fill:#263238"></path><path d="M126.23,143.06s-2.46-1.95-.63-7.91C123.35,136.27,122.27,142.36,126.23,143.06Z" style="fill:#263238"></path><path d="M131.71,165.44a9.25,9.25,0,0,0,6,3.25c3.1.33,4-2.53,2.66-5.16-1.24-2.36-4.34-5.38-7.2-4.49S129.86,163.19,131.71,165.44Z" style="fill:#ffc3bd"></path><path d="M178.88,300.76H146.93c-2.87-17.34-5.18-30.39-5.18-30.39h32.91S176.51,283.2,178.88,300.76Z" style="fill:#263238"></path><path d="M125.88,300.76c-.72-17.34-1.26-30.39-1.26-30.39h32.26s.16,13.21.23,30.39Z" style="fill:#263238"></path><path d="M148.73,155.9c.11.75.59,1.31,1.08,1.26s.8-.71.69-1.45-.59-1.31-1.08-1.26S148.62,155.15,148.73,155.9Z" style="fill:#263238"></path><path d="M157.2,155c.11.75.59,1.31,1.08,1.25s.8-.7.69-1.44-.59-1.31-1.08-1.26S157.09,154.22,157.2,155Z" style="fill:#263238"></path><path d="M154.56,155.64a28.32,28.32,0,0,0,4.5,6c-1.14,1.38-3.48,1.06-3.48,1.06Z" style="fill:#ed847e"></path><path d="M152.14,165a7.33,7.33,0,0,0,1.55,0,.22.22,0,0,0,.2-.24.23.23,0,0,0-.25-.2,6.2,6.2,0,0,1-5.18-1.78.22.22,0,0,0-.34.29A6.44,6.44,0,0,0,152.14,165Z" style="fill:#263238"></path><path d="M145.67,153.46a.43.43,0,0,0,.43-.22,3.35,3.35,0,0,1,2.6-1.76.45.45,0,0,0,.42-.47.44.44,0,0,0-.46-.42,4.27,4.27,0,0,0-3.33,2.21.44.44,0,0,0,.17.61A.34.34,0,0,0,145.67,153.46Z" style="fill:#263238"></path><path d="M160.37,151.67a.47.47,0,0,0,.3-.08.45.45,0,0,0,.12-.61,4.56,4.56,0,0,0-3.51-2.11.45.45,0,0,0-.45.43.45.45,0,0,0,.44.45,3.68,3.68,0,0,1,2.78,1.72A.47.47,0,0,0,160.37,151.67Z" style="fill:#263238"></path><path d="M128.47,203.16,126.25,207q-1.12,2-2.19,4-2.16,4-4.14,8.06c-1.3,2.71-2.54,5.43-3.65,8.17-.53,1.36-1.07,2.73-1.53,4.1l-.71,2.05-.59,2-.15.51-.08.26c0,.09,0,0,0,.06s0,.11-.07.22a5.69,5.69,0,0,0,0,1.18,17.34,17.34,0,0,0,.74,3.5,61.33,61.33,0,0,0,3.2,8c2.53,5.43,5.61,10.91,8.64,16.26l-5.53,4.32c-2.36-2.37-4.48-4.78-6.56-7.32s-4-5.18-5.89-8a60.2,60.2,0,0,1-5-9.09,29.64,29.64,0,0,1-1.84-5.62,17.32,17.32,0,0,1-.38-3.55,12.5,12.5,0,0,1,.16-2.14l.08-.52.07-.32.13-.65a75.77,75.77,0,0,1,2.63-10c1.06-3.22,2.3-6.32,3.62-9.38s2.77-6,4.32-8.94c.78-1.45,1.57-2.89,2.4-4.33s1.65-2.8,2.64-4.33Z" style="fill:#ffc3bd"></path><path d="M118.93,189.11c-8.8,1.29-17.87,31.93-17.87,31.93L120,231.53s7.67-14.58,11.33-25.4C135.16,194.79,128.36,187.73,118.93,189.11Z" style="fill:#0444AC"></path><polygon points="101.45 216.72 100.65 221.22 120.11 231.93 122.7 228.22 101.45 216.72" style="fill:#0444AC"></polygon><polygon points="101.45 216.72 100.65 221.22 120.11 231.93 122.7 228.22 101.45 216.72" style="fill:#263238;opacity:0.30000000000000004"></polygon><path d="M123.2,263.29l9.3-1.62-4.77,10.77s-8.5-.05-8.11-4.43Z" style="fill:#ffc3bd"></path><polygon points="139.45 267.08 135.07 275.78 127.73 272.44 132.5 261.67 139.45 267.08" style="fill:#ffc3bd"></polygon></g><g id="freepik--character-2--inject-44"><path d="M430.31,306.42H295.5a3.44,3.44,0,0,1-3.45-3.56l3.19-96.38a3.74,3.74,0,0,1,3.69-3.57h134.8a3.43,3.43,0,0,1,3.45,3.57L434,302.86A3.71,3.71,0,0,1,430.31,306.42Z" style="fill:#0444AC"></path><path d="M430.31,306.42H295.5a3.44,3.44,0,0,1-3.45-3.56l3.19-96.38a3.74,3.74,0,0,1,3.69-3.57h134.8a3.43,3.43,0,0,1,3.45,3.57L434,302.86A3.71,3.71,0,0,1,430.31,306.42Z" style="fill:#263238;opacity:0.6000000000000001"></path><path d="M429.21,306.42H294.4a3.44,3.44,0,0,1-3.45-3.56l3.19-96.38a3.74,3.74,0,0,1,3.69-3.57h134.8a3.44,3.44,0,0,1,3.45,3.57l-3.19,96.38A3.71,3.71,0,0,1,429.21,306.42Z" style="fill:#0444AC"></path><path d="M427.47,306.25H264.66a4.27,4.27,0,0,0-3.84,2.4,1.23,1.23,0,0,0,1.12,1.76H430.19a1.23,1.23,0,0,0,1.13-1.76A4.28,4.28,0,0,0,427.47,306.25Z" style="fill:#0444AC"></path><path d="M427.47,306.25h-25a4.28,4.28,0,0,0-3.85,2.4,1.23,1.23,0,0,0,1.13,1.76h30.39a1.23,1.23,0,0,0,1.13-1.76A4.28,4.28,0,0,0,427.47,306.25Z" style="fill:#263238;opacity:0.6000000000000001"></path><path d="M342.32,308.89h-33.8a1.52,1.52,0,0,0-1.51,1.52h36.83A1.52,1.52,0,0,0,342.32,308.89Z" style="opacity:0.2"></path><path d="M294.17,299.37l3-89.4a1.46,1.46,0,0,1,1.44-1.39h133a1.33,1.33,0,0,1,1.34,1.39l-3,89.4a1.44,1.44,0,0,1-1.43,1.39h-133A1.34,1.34,0,0,1,294.17,299.37Z" style="fill:#fff;opacity:0.9"></path><polygon points="388.72 300.76 370.39 300.76 391.52 208.58 409.85 208.58 388.72 300.76" style="fill:#fff"></polygon><polygon points="309.13 300.76 302.53 300.76 323.66 208.58 330.25 208.58 309.13 300.76" style="fill:#fff"></polygon><polygon points="403.75 300.76 397.15 300.76 418.28 208.58 424.88 208.58 403.75 300.76" style="fill:#fff"></polygon><path d="M366.18,205.9a1.1,1.1,0,0,1-1.08,1,1,1,0,0,1-1-1,1.08,1.08,0,0,1,1.08-1A1,1,0,0,1,366.18,205.9Z" style="opacity:0.4"></path><path d="M356.46,163.07c-1.57,6.84-3.35,19.37,1.28,23.93,0,0-2,5.66-14.7,5.66-14,0-6.55-5.66-6.55-5.66,7.69-1.82,7.69-7.48,6.54-12.79Z" style="fill:#b55b52"></path><path d="M376.81,195.56c1,1.53,1.82,2.87,2.64,4.33s1.63,2.88,2.41,4.33c1.54,2.92,3,5.89,4.32,8.94s2.56,6.16,3.61,9.38a75.79,75.79,0,0,1,2.64,10l.13.65.06.32.09.52a14.91,14.91,0,0,1,.16,2.14,18.84,18.84,0,0,1-.38,3.55,29.63,29.63,0,0,1-1.85,5.62,59.3,59.3,0,0,1-5,9.09c-1.86,2.79-3.82,5.43-5.9,8a97.82,97.82,0,0,1-6.56,7.32l-5.52-4.32c3-5.35,6.11-10.83,8.64-16.26a61.23,61.23,0,0,0,3.19-8,17.34,17.34,0,0,0,.74-3.5,5.18,5.18,0,0,0,0-1.18c0-.11,0-.21-.08-.22l0-.06-.07-.26-.15-.51-.6-2-.7-2.05c-.47-1.37-1-2.74-1.54-4.1-1.11-2.74-2.35-5.46-3.64-8.17s-2.71-5.39-4.14-8.06q-1.06-2-2.19-4l-2.22-3.83Z" style="fill:#b65b52"></path><path d="M374.4,189.11c8.8,1.29,17.86,31.93,17.86,31.93l-18.93,10.49S365.65,217,362,206.13C358.16,194.79,365,187.73,374.4,189.11Z" style="fill:#263238"></path><path d="M368.67,205.9,367.24,219c1.43,3.15,2.83,6,3.92,8.25C371.57,222,371.56,213.46,368.67,205.9Z" style="opacity:0.30000000000000004"></path><polygon points="391.87 216.72 392.68 221.22 373.22 231.93 370.63 228.22 391.87 216.72" style="fill:#0444AC"></polygon><polygon points="391.87 216.72 392.68 221.22 373.22 231.93 370.63 228.22 391.87 216.72" style="fill:#263238;opacity:0.30000000000000004"></polygon><path d="M370.13,263.29l-9.31-1.62,4.78,10.77s8.49-.05,8.1-4.43Z" style="fill:#b55b52"></path><polygon points="353.88 267.08 358.25 275.78 365.6 272.44 360.82 261.67 353.88 267.08" style="fill:#b55b52"></polygon><path d="M322,189.59s-12,28.22-3.35,80.78h50c.61-7.67-2.92-45.1,5.74-81.26A128.23,128.23,0,0,0,357.74,187a183.59,183.59,0,0,0-21.25,0A95.11,95.11,0,0,0,322,189.59Z" style="fill:#263238"></path><path d="M316.65,213.73a169.84,169.84,0,0,0-1.11,19.05c6.8-4.43,9.22-14.59,10.18-21.95Z" style="opacity:0.30000000000000004"></path><path d="M328.78,203.28c-1.91,3.28-3.84,6.3-5.86,9.38s-4.09,6.07-6.26,9a159.38,159.38,0,0,1-14.3,17.18,70,70,0,0,1-8.89,7.79l-1.3.9c-.56.34-1.14.71-1.68,1a24.27,24.27,0,0,1-3.23,1.38,42.18,42.18,0,0,1-6.05,1.52,69.53,69.53,0,0,1-11.46.91c-1.87,0-3.74,0-5.59-.19s-3.68-.27-5.6-.55v-7c3.37-.58,6.87-1.23,10.21-1.94,1.68-.35,3.35-.73,5-1.15s3.22-.86,4.72-1.37a29.59,29.59,0,0,0,4.18-1.66,16.11,16.11,0,0,0,1.61-.93c.25-.15.4-.31.6-.45l.86-.68a65.51,65.51,0,0,0,6.85-6.73,185.42,185.42,0,0,0,12.57-16.23c2-2.84,3.93-5.74,5.87-8.64s3.81-5.91,5.59-8.75Z" style="fill:#b65b52"></path><path d="M333.41,198c1,8.78-18.58,30.08-18.58,30.08l-15.49-12.12a191.23,191.23,0,0,1,13.74-20.21C321.12,185.76,332.3,188.07,333.41,198Z" style="fill:#263238"></path><polygon points="300.48 211.89 298.99 216.21 314.82 229.21 317.96 225.96 300.48 211.89" style="fill:#0444AC"></polygon><polygon points="300.48 211.89 298.99 216.21 314.82 229.21 317.96 225.96 300.48 211.89" style="fill:#263238;opacity:0.30000000000000004"></polygon><path d="M258.56,244.63l-11.15.16,4.49,10.44c1.38.45,7.54-1.74,10.64-5.16Z" style="fill:#b55b52"></path><polygon points="239.72 250.2 245.81 257.84 251.9 255.22 247.41 244.79 239.72 250.2" style="fill:#b55b52"></polygon><path d="M333.35,155c-.11.75-.59,1.31-1.08,1.25s-.8-.7-.7-1.44.6-1.31,1.09-1.26S333.46,154.22,333.35,155Z" style="fill:#263238"></path><path d="M333.56,155.64a28.13,28.13,0,0,1-4.51,6c1.15,1.38,3.49,1.06,3.49,1.06Z" style="fill:#a02724"></path><path d="M332.29,161.16c-1.67,0-3.18-2.41-3.45-5.49A6.72,6.72,0,0,1,330,150.8a1.88,1.88,0,0,1,1.4-.68h0c1.67,0,3.18,2.4,3.45,5.48h0a6.7,6.7,0,0,1-1.14,4.88,1.92,1.92,0,0,1-1.4.68Zm-.9-10.54h0a1.39,1.39,0,0,0-1,.51,6.26,6.26,0,0,0-1,4.5c.24,2.73,1.59,5,3,5h0a1.4,1.4,0,0,0,1-.52,6.18,6.18,0,0,0,1-4.49C334.1,152.92,332.75,150.62,331.39,150.62Z" style="fill:#263238"></path><path d="M336,151.67a.44.44,0,0,0,.29-.08.44.44,0,0,0,.13-.61,4.56,4.56,0,0,0-3.51-2.11.45.45,0,0,0-.45.43.45.45,0,0,0,.44.45,3.68,3.68,0,0,1,2.78,1.72A.47.47,0,0,0,336,151.67Z" style="fill:#263238"></path><path d="M358.93,154.87c-1.9,9.11-2.54,14.52-7.88,18.71a12.09,12.09,0,0,1-19.63-8.53c-.78-8.45,2.45-21.92,12-24.58A12.24,12.24,0,0,1,358.93,154.87Z" style="fill:#b55b52"></path><path d="M371.35,300.76a115.12,115.12,0,0,0-2.65-30.39H336.44a121.63,121.63,0,0,1,3.69,30.39Z" style="fill:#0444AC"></path><path d="M371.35,300.76a115.12,115.12,0,0,0-2.65-30.39H336.44a121.63,121.63,0,0,1,3.69,30.39Z" style="fill:#fff;opacity:0.30000000000000004"></path><path d="M339.17,157.61c-1.78-.89-4-9.78-3.39-12.94s7.78-6.56,14.83-5.28,10.08,3.75,11.45,10.17c1.41,6.66-3.73,17.75-6.27,18.61a11.24,11.24,0,0,1-9.23-.78C344.29,166,343.11,155.78,339.17,157.61Z" style="fill:#263238"></path><path d="M337.3,147.86c-3.44.2-6.72-5.28-3.56-10.17a8.65,8.65,0,0,1,8.56-3.83s-1.44,2.81,3.36,2.22,13.74.75,16.86,4.11c3.86,4.14,1.53,12.28-4.28,10.28S337.3,147.86,337.3,147.86Z" style="fill:#263238"></path><path d="M336.38,148a5.07,5.07,0,0,1-3.72-1.9,7.56,7.56,0,0,1-1.14-7.85.25.25,0,1,1,.47.19,7,7,0,0,0,1.05,7.33,4.22,4.22,0,0,0,4.07,1.64.26.26,0,0,1,.3.18.26.26,0,0,1-.18.31A3.53,3.53,0,0,1,336.38,148Z" style="fill:#263238"></path><path d="M344.82,156.46a9.28,9.28,0,0,1-2.13,6.51c-2,2.37-4.67.94-5.48-1.91-.73-2.57-.56-6.89,2.13-8.22S344.61,153.57,344.82,156.46Z" style="fill:#b55b52"></path><path d="M314.45,300.76H350.3a117.84,117.84,0,0,0,1.27-30.39h-32.9S316.82,283.2,314.45,300.76Z" style="fill:#0444AC"></path><path d="M314.45,300.76H350.3a117.84,117.84,0,0,0,1.27-30.39h-32.9S316.82,283.2,314.45,300.76Z" style="fill:#fff;opacity:0.30000000000000004"></path></g></svg>