<?xml version="1.0" standalone="no"?>
<svg viewBox="0 0 200 200" xmlns="http://www.w3.org/2000/svg">
  <path fill="#F2F4F8" d="M41.6,-71.2C54.5,-64.6,65.9,-54.6,67.8,-42.2C69.8,-29.8,62.2,-14.9,59.8,-1.4C57.4,12.1,60.3,24.3,57.6,35.4C54.9,46.4,46.6,56.4,36.1,65.5C25.6,74.7,12.8,82.9,2.1,79.3C-8.6,75.7,-17.2,60.2,-27.5,51C-37.8,41.7,-49.8,38.7,-58,31.3C-66.2,23.8,-70.6,11.9,-68.1,1.4C-65.7,-9,-56.2,-18,-48,-25.4C-39.8,-32.8,-32.7,-38.5,-24.8,-48C-17,-57.5,-8.5,-70.6,2.9,-75.7C14.4,-80.8,28.7,-77.7,41.6,-71.2Z" transform="translate(100 100)" />
</svg>
